STARTFONT 2.1
COMMENT This font image translated from Metafont
COMMENT Input file was ``aplox''
COMMENT DPI was ``300'', usermag ``500'', blackness ``3''
COMMENT shrink was 2
FONT aplox.216
SIZE 10 216 216
FONTBOUNDINGBOX 18 26 0 -4
STARTPROPERTIES 3
FONT_ASCENT 22
FONT_DESCENT 6
COPYRIGHT "Public Domain"
ENDPROPERTIES
CHARS 154
STARTCHAR C032
ENCODING 32
SWIDTH 480 0
DWIDTH 20 0
BBX 2 21 8 -2
BITMAP
0000
0000
0000
0000
0000
0000
0000
0000
0000
0000
0000
0000
0000
0000
0000
0000
0000
0000
0000
0000
0000
ENDCHAR
STARTCHAR C033
ENCODING 33
SWIDTH 480 0
DWIDTH 20 0
BBX 2 21 8 -2
BITMAP
c0
c0
c0
c0
c0
c0
c0
c0
c0
c0
c0
c0
c0
c0
00
00
00
c0
c0
c0
c0
ENDCHAR
STARTCHAR C034
ENCODING 34
SWIDTH 480 0
DWIDTH 20 0
BBX 9 6 4 13
BITMAP
c380
c380
c380
c380
c380
c380
ENDCHAR
STARTCHAR C035
ENCODING 35
SWIDTH 480 0
DWIDTH 20 0
BBX 13 15 2 0
BITMAP
38e0
38e0
38e0
38e0
fff8
fff8
fff8
38e0
fff8
fff8
fff8
38e0
38e0
38e0
38e0
ENDCHAR
STARTCHAR C036
ENCODING 36
SWIDTH 480 0
DWIDTH 20 0
BBX 11 15 2 0
BITMAP
0e00
0e00
1f80
7fe0
7fe0
ce00
7e00
3f80
1fc0
0e60
ffe0
7fc0
3f00
0e00
0e00
ENDCHAR
STARTCHAR C037
ENCODING 37
SWIDTH 480 0
DWIDTH 20 0
BBX 13 19 2 -2
BITMAP
1018
3838
6c38
6c70
78f0
30e0
01c0
03c0
0380
0700
0f00
0e00
1c00
3c60
38f0
71b0
71b0
e0f0
c040
ENDCHAR
STARTCHAR C038
ENCODING 38
SWIDTH 480 0
DWIDTH 20 0
BBX 13 15 2 -2
BITMAP
3c00
7e00
c300
c300
c300
c300
7e00
7c18
7e38
c3d0
c1e0
e0c0
fff8
7f38
1c08
ENDCHAR
STARTCHAR C039
ENCODING 39
SWIDTH 480 0
DWIDTH 20 0
BBX 4 9 6 8
BITMAP
f0
f0
f0
f0
f0
f0
f0
f0
f0
ENDCHAR
STARTCHAR C040
ENCODING 40
SWIDTH 480 0
DWIDTH 20 0
BBX 6 19 6 -2
BITMAP
0c
1c
18
38
70
70
60
e0
c0
c0
c0
e0
e0
70
30
38
18
1c
0c
ENDCHAR
STARTCHAR C041
ENCODING 41
SWIDTH 480 0
DWIDTH 20 0
BBX 6 19 4 -2
BITMAP
c0
e0
70
70
38
18
1c
1c
0c
0c
0c
1c
1c
18
38
70
70
e0
c0
ENDCHAR
STARTCHAR C042
ENCODING 42
SWIDTH 480 0
DWIDTH 20 0
BBX 12 11 2 2
BITMAP
0600
0600
0e00
ce30
7fe0
3fc0
0f00
0f00
1b00
1180
0080
ENDCHAR
STARTCHAR C043
ENCODING 43
SWIDTH 480 0
DWIDTH 20 0
BBX 11 11 2 2
BITMAP
0e00
0e00
0e00
0e00
ffe0
ffe0
ffe0
0e00
0e00
0e00
0e00
ENDCHAR
STARTCHAR C044
ENCODING 44
SWIDTH 480 0
DWIDTH 20 0
BBX 8 6 2 -4
BITMAP
3f
3e
3c
78
f0
c0
ENDCHAR
STARTCHAR C045
ENCODING 45
SWIDTH 480 0
DWIDTH 20 0
BBX 13 2 2 7
BITMAP
fff8
fff8
ENDCHAR
STARTCHAR C046
ENCODING 46
SWIDTH 480 0
DWIDTH 20 0
BBX 4 4 6 -2
BITMAP
f0
f0
f0
f0
ENDCHAR
STARTCHAR C047
ENCODING 47
SWIDTH 480 0
DWIDTH 20 0
BBX 15 19 0 -2
BITMAP
0006
000e
001c
001c
0038
0070
0070
00e0
01c0
0380
0700
0600
0e00
1c00
3800
7000
7000
e000
c000
ENDCHAR
STARTCHAR C048
ENCODING 48
SWIDTH 480 0
DWIDTH 20 0
BBX 13 19 2 -2
BITMAP
0f80
1fc0
3060
6030
e038
e038
e018
e018
e018
c018
c018
e018
e038
e038
6030
3060
1fc0
0f80
0200
ENDCHAR
STARTCHAR C049
ENCODING 49
SWIDTH 480 0
DWIDTH 20 0
BBX 11 19 2 -2
BITMAP
0e00
1e00
3e00
7e00
7e00
ce00
0e00
0e00
0e00
0e00
0e00
0e00
0e00
0e00
0e00
0e00
0e00
ffe0
ffe0
ENDCHAR
STARTCHAR C050
ENCODING 50
SWIDTH 480 0
DWIDTH 20 0
BBX 13 19 2 -2
BITMAP
1fc0
7fe0
6070
e038
c018
c018
c018
0038
0030
00e0
03c0
0780
1f00
3c00
7000
e000
e000
fff8
fff8
ENDCHAR
STARTCHAR C051
ENCODING 51
SWIDTH 480 0
DWIDTH 20 0
BBX 13 19 2 -2
BITMAP
fff8
fff8
0038
0030
0070
00e0
01c0
0380
0780
0fe0
07f0
0038
0038
0038
0038
c038
f8f8
7ff0
3fe0
ENDCHAR
STARTCHAR C052
ENCODING 52
SWIDTH 480 0
DWIDTH 20 0
BBX 13 19 2 -2
BITMAP
0060
00e0
01e0
03e0
06e0
0ce0
18e0
30e0
60e0
e0e0
e0e0
e0e0
fff8
fff8
fff8
00e0
00e0
00e0
00e0
ENDCHAR
STARTCHAR C053
ENCODING 53
SWIDTH 480 0
DWIDTH 20 0
BBX 13 19 2 -2
BITMAP
fff8
fff8
e000
e000
e000
e000
e3c0
efe0
fff0
f838
f038
0038
0018
0018
0038
c038
7870
7ff0
3fe0
ENDCHAR
STARTCHAR C054
ENCODING 54
SWIDTH 480 0
DWIDTH 20 0
BBX 13 19 2 -2
BITMAP
07e0
1fe0
3e00
7800
7000
e000
e000
c000
c380
cfe0
fff0
f838
e038
e018
e038
e038
6070
7fe0
3fc0
ENDCHAR
STARTCHAR C055
ENCODING 55
SWIDTH 480 0
DWIDTH 20 0
BBX 13 19 2 -2
BITMAP
fff8
fff8
0038
0038
0070
00e0
00c0
01c0
0380
0700
0700
0600
0e00
0c00
1c00
1c00
1800
3800
3800
ENDCHAR
STARTCHAR C056
ENCODING 56
SWIDTH 480 0
DWIDTH 20 0
BBX 13 19 2 -2
BITMAP
1fc0
7ff0
7870
e038
e038
e018
e038
e038
7ff0
3fe0
3ff0
6038
e018
e018
e038
e038
7070
7ff0
1fc0
ENDCHAR
STARTCHAR C057
ENCODING 57
SWIDTH 480 0
DWIDTH 20 0
BBX 13 19 2 -2
BITMAP
1fc0
7ff0
7070
e038
e038
e038
e038
e078
7ff8
3f98
0e18
0018
0038
0038
0030
0060
01c0
3f80
3f00
ENDCHAR
STARTCHAR C058
ENCODING 58
SWIDTH 480 0
DWIDTH 20 0
BBX 4 15 6 -2
BITMAP
f0
f0
f0
f0
f0
00
00
00
00
00
00
f0
f0
f0
f0
ENDCHAR
STARTCHAR C059
ENCODING 59
SWIDTH 480 0
DWIDTH 20 0
BBX 8 17 2 -4
BITMAP
0f
0f
0f
0f
0f
00
00
00
00
00
0f
0f
0f
1e
7c
70
80
ENDCHAR
STARTCHAR C060
ENCODING 60
SWIDTH 480 0
DWIDTH 20 0
BBX 10 19 5 -2
BITMAP
00c0
0180
0380
0700
0c00
1800
3000
7000
e000
e000
e000
7000
3000
1800
0c00
0600
0300
0180
00c0
ENDCHAR
STARTCHAR C061
ENCODING 61
SWIDTH 480 0
DWIDTH 20 0
BBX 13 9 2 2
BITMAP
fff8
fff8
0000
0000
0000
0000
fff8
fff8
fff8
ENDCHAR
STARTCHAR C062
ENCODING 62
SWIDTH 480 0
DWIDTH 20 0
BBX 11 19 2 -2
BITMAP
c000
6000
3000
1800
0c00
0600
0300
0380
01c0
01e0
01c0
0180
0300
0600
0c00
1800
3000
6000
c000
ENDCHAR
STARTCHAR C063
ENCODING 63
SWIDTH 480 0
DWIDTH 20 0
BBX 13 19 2 -2
BITMAP
1fc0
7ff0
78f0
e038
e038
e038
c038
0038
0070
00e0
01c0
0180
0380
0380
0380
0000
0000
0380
0380
ENDCHAR
STARTCHAR C064
ENCODING 64
SWIDTH 480 0
DWIDTH 20 0
BBX 13 19 2 -2
BITMAP
1fc0
7ff0
7070
e038
e038
e018
e318
c7d8
cff8
dcf8
dc78
ccf8
cff8
e7f8
e318
e000
f000
7ff8
3ff0
ENDCHAR
STARTCHAR C065
ENCODING 65
SWIDTH 480 0
DWIDTH 20 0
BBX 13 19 2 -2
BITMAP
0700
1fc0
38e0
7070
6030
e038
e038
e018
c018
c018
fff8
fff8
fff8
e018
e018
e018
e018
e018
e018
ENDCHAR
STARTCHAR C066
ENCODING 66
SWIDTH 480 0
DWIDTH 20 0
BBX 15 19 0 -2
BITMAP
fff0
fff8
381c
380e
3806
3806
380e
380e
3ffc
3ff8
3ff8
380e
380e
3806
3806
380e
380c
fffc
fff8
ENDCHAR
STARTCHAR C067
ENCODING 67
SWIDTH 480 0
DWIDTH 20 0
BBX 13 19 2 -2
BITMAP
1fc0
7ff0
7070
e018
e000
e000
e000
c000
c000
c000
c000
c000
c000
e000
e000
e018
7070
7ff0
1fe0
ENDCHAR
STARTCHAR C068
ENCODING 68
SWIDTH 480 0
DWIDTH 20 0
BBX 15 19 0 -2
BITMAP
fff0
fffc
381c
380e
380e
380e
380e
3806
3806
3806
3806
3806
3806
3806
3806
380e
381c
fffc
fff8
ENDCHAR
STARTCHAR C069
ENCODING 69
SWIDTH 480 0
DWIDTH 20 0
BBX 13 19 2 -2
BITMAP
fff8
fff8
e000
e000
e000
e000
e000
e000
ff00
ff80
ff00
e000
e000
e000
e000
e000
e000
fff8
fff8
ENDCHAR
STARTCHAR C070
ENCODING 70
SWIDTH 480 0
DWIDTH 20 0
BBX 13 19 2 -2
BITMAP
fff8
fff8
e000
e000
e000
e000
e000
e000
ff00
ff80
ff00
e000
e000
e000
e000
e000
e000
e000
e000
ENDCHAR
STARTCHAR C071
ENCODING 71
SWIDTH 480 0
DWIDTH 20 0
BBX 13 19 2 -2
BITMAP
1fc0
7ff0
7070
e018
e000
e000
c000
c000
c000
c000
c1f8
c3f8
e1f8
e038
e038
e078
71f8
7fd8
1f18
ENDCHAR
STARTCHAR C072
ENCODING 72
SWIDTH 480 0
DWIDTH 20 0
BBX 13 19 2 -2
BITMAP
e018
e018
e018
e018
e018
e018
e018
e018
fff8
fff8
fff8
e018
e018
e018
e018
e018
e018
e018
e018
ENDCHAR
STARTCHAR C073
ENCODING 73
SWIDTH 480 0
DWIDTH 20 0
BBX 11 19 2 -2
BITMAP
ffe0
ffe0
0e00
0e00
0e00
0e00
0e00
0e00
0e00
0e00
0e00
0e00
0e00
0e00
0e00
0e00
0e00
ffe0
ffe0
ENDCHAR
STARTCHAR C074
ENCODING 74
SWIDTH 480 0
DWIDTH 20 0
BBX 13 19 2 -2
BITMAP
0ff8
0ff8
00e0
00e0
00e0
00e0
00e0
00e0
00e0
00e0
00e0
00e0
00e0
00e0
00e0
c0e0
71c0
7f80
1f00
ENDCHAR
STARTCHAR C075
ENCODING 75
SWIDTH 480 0
DWIDTH 20 0
BBX 13 19 2 -2
BITMAP
e018
e030
e060
e0c0
e180
e300
e600
fe00
fc00
fc00
fc00
fe00
e600
e300
e180
e0c0
e060
e030
e018
ENDCHAR
STARTCHAR C076
ENCODING 76
SWIDTH 480 0
DWIDTH 20 0
BBX 13 19 2 -2
BITMAP
e000
e000
e000
e000
e000
e000
e000
e000
e000
e000
e000
e000
e000
e000
e000
e000
e000
fff8
fff8
ENDCHAR
STARTCHAR C077
ENCODING 77
SWIDTH 480 0
DWIDTH 20 0
BBX 15 19 0 -2
BITMAP
c00e
e00e
e00e
f01e
f01e
f83e
dc76
cc66
c7c6
c7c6
c386
c386
c106
c006
c006
c006
c006
c006
c006
ENDCHAR
STARTCHAR C078
ENCODING 78
SWIDTH 480 0
DWIDTH 20 0
BBX 13 19 2 -2
BITMAP
e018
e018
e018
f018
f018
f818
fc18
ee18
e718
e398
e1d8
e0f8
e078
e078
e038
e038
e038
e038
e018
ENDCHAR
STARTCHAR C079
ENCODING 79
SWIDTH 480 0
DWIDTH 20 0
BBX 13 19 2 -2
BITMAP
1fc0
3ff0
7030
e038
e038
e018
c018
c018
c018
c018
c018
c018
e018
e018
e038
e038
7030
7ff0
3fe0
ENDCHAR
STARTCHAR C080
ENCODING 80
SWIDTH 480 0
DWIDTH 20 0
BBX 13 19 2 -2
BITMAP
ffc0
fff0
e070
e038
e018
e018
e038
e038
fff0
ffe0
ffc0
e000
e000
e000
e000
e000
e000
e000
e000
ENDCHAR
STARTCHAR C081
ENCODING 81
SWIDTH 480 0
DWIDTH 20 0
BBX 13 21 2 -4
BITMAP
1fc0
7ff0
7070
e038
c018
c018
c018
c018
e018
e018
e018
c018
c018
c418
c638
e338
61f0
7ff0
3fe0
00f0
0018
ENDCHAR
STARTCHAR C082
ENCODING 82
SWIDTH 480 0
DWIDTH 20 0
BBX 13 19 2 -2
BITMAP
ffc0
fff0
e070
e038
e018
e018
e038
e038
fff0
ffe0
ffc0
ee00
e700
e380
e1c0
e0e0
e070
e030
e018
ENDCHAR
STARTCHAR C083
ENCODING 83
SWIDTH 480 0
DWIDTH 20 0
BBX 13 19 2 -2
BITMAP
1fc0
7ff0
78f0
e038
e000
e000
e000
e000
7f80
3fe0
1ff0
0038
0038
0038
0038
c038
7078
7ff0
3fe0
ENDCHAR
STARTCHAR C084
ENCODING 84
SWIDTH 480 0
DWIDTH 20 0
BBX 15 19 0 -2
BITMAP
fffe
fffe
0380
0380
0380
0380
0380
0380
0380
0380
0380
0380
0380
0380
0380
0380
0380
0380
0380
ENDCHAR
STARTCHAR C085
ENCODING 85
SWIDTH 480 0
DWIDTH 20 0
BBX 13 19 2 -2
BITMAP
e018
c018
c018
c018
c018
c018
c018
c018
c018
c018
c018
c018
e018
e018
e038
e038
7070
7ff0
3fe0
ENDCHAR
STARTCHAR C086
ENCODING 86
SWIDTH 480 0
DWIDTH 20 0
BBX 15 19 0 -2
BITMAP
c002
c006
e00e
e00e
600c
701c
3018
3018
3838
3830
1830
1c70
0c60
0c60
0ce0
06c0
06c0
0380
0380
ENDCHAR
STARTCHAR C087
ENCODING 87
SWIDTH 480 0
DWIDTH 20 0
BBX 15 19 0 -2
BITMAP
c006
c006
c006
c006
c006
c006
c006
c006
c106
c386
c386
c386
c386
c38e
c7ce
eece
fc7c
783c
3018
ENDCHAR
STARTCHAR C088
ENCODING 88
SWIDTH 480 0
DWIDTH 20 0
BBX 15 19 0 -2
BITMAP
c006
c00e
e00e
e00c
701c
3038
1c70
0fe0
07c0
07c0
07c0
0fe0
1c70
3838
701c
600c
e00e
c00e
c006
ENDCHAR
STARTCHAR C089
ENCODING 89
SWIDTH 480 0
DWIDTH 20 0
BBX 15 19 0 -2
BITMAP
c006
c00e
e00e
e00e
701c
3038
1c70
0fe0
07c0
0780
0380
0380
0380
0380
0380
0380
0380
0380
0380
ENDCHAR
STARTCHAR C090
ENCODING 90
SWIDTH 480 0
DWIDTH 20 0
BBX 13 19 2 -2
BITMAP
fff8
fff8
0038
0038
0070
00e0
01c0
0380
0700
0e00
1c00
3800
7000
e000
e000
e000
e000
fff8
fff8
ENDCHAR
STARTCHAR C091
ENCODING 91
SWIDTH 480 0
DWIDTH 20 0
BBX 9 19 4 -2
BITMAP
ff80
ff80
c000
c000
c000
c000
c000
c000
c000
c000
c000
c000
c000
c000
c000
c000
c000
ff80
ff80
ENDCHAR
STARTCHAR C092
ENCODING 92
SWIDTH 480 0
DWIDTH 20 0
BBX 15 19 0 -2
BITMAP
c000
c000
e000
7000
3000
3800
1c00
0e00
0700
0380
01c0
00c0
00e0
0070
0038
001c
000e
0006
0002
ENDCHAR
STARTCHAR C093
ENCODING 93
SWIDTH 480 0
DWIDTH 20 0
BBX 9 19 4 -2
BITMAP
ff80
ff80
0380
0380
0380
0380
0380
0380
0380
0380
0380
0380
0380
0380
0380
0380
0380
ff80
ff80
ENDCHAR
STARTCHAR C094
ENCODING 94
SWIDTH 480 0
DWIDTH 20 0
BBX 15 15 0 0
BITMAP
0100
0380
0680
06c0
0c60
0c60
1830
1830
3018
3018
600c
600c
c00e
c006
8002
ENDCHAR
STARTCHAR C095
ENCODING 95
SWIDTH 480 0
DWIDTH 20 0
BBX 17 3 0 -4
BITMAP
ffff80
ffff80
ffff80
ENDCHAR
STARTCHAR C096
ENCODING 96
SWIDTH 480 0
DWIDTH 20 0
BBX 8 7 4 10
BITMAP
f8
fc
fe
3e
0f
03
00
ENDCHAR
STARTCHAR C097
ENCODING 97
SWIDTH 480 0
DWIDTH 20 0
BBX 13 13 2 -2
BITMAP
3fc0
3fe0
00f0
0038
3ff8
7ff8
f838
c038
c078
c0f8
ffb8
7f38
1e18
ENDCHAR
STARTCHAR C098
ENCODING 98
SWIDTH 480 0
DWIDTH 20 0
BBX 13 19 2 -2
BITMAP
e000
e000
e000
e000
e000
e000
e7c0
efe0
fff0
f038
e038
e018
e018
e018
e018
f038
f870
fff0
efc0
ENDCHAR
STARTCHAR C099
ENCODING 99
SWIDTH 480 0
DWIDTH 20 0
BBX 13 13 2 -2
BITMAP
3fc0
7ff0
7070
e018
e000
e000
e000
e000
e008
e038
7ff0
3fe0
0fc0
ENDCHAR
STARTCHAR C100
ENCODING 100
SWIDTH 480 0
DWIDTH 20 0
BBX 13 19 2 -2
BITMAP
0018
0018
0018
0018
0018
0018
1f18
3f98
7fd8
e078
e038
e038
c018
c038
e038
e038
60f8
7fd8
3f18
ENDCHAR
STARTCHAR C101
ENCODING 101
SWIDTH 480 0
DWIDTH 20 0
BBX 13 13 2 -2
BITMAP
3fe0
7ff0
e030
e038
fff8
fff8
e000
e000
e000
e000
7fc0
3fe0
0f80
ENDCHAR
STARTCHAR C102
ENCODING 102
SWIDTH 480 0
DWIDTH 20 0
BBX 13 19 2 -2
BITMAP
07c0
0ff0
1e78
3818
3800
3800
3800
3800
ffe0
ffe0
ffe0
3800
3800
3800
3800
3800
3800
3800
3800
ENDCHAR
STARTCHAR C103
ENCODING 103
SWIDTH 480 0
DWIDTH 20 0
BBX 13 17 2 -6
BITMAP
3f10
7ff0
e1e0
c0e0
c0c0
e1c0
7f80
3f00
7c00
c000
ff80
3fc0
7ff0
c038
f0f0
7fe0
3fc0
ENDCHAR
STARTCHAR C104
ENCODING 104
SWIDTH 480 0
DWIDTH 20 0
BBX 13 19 2 -2
BITMAP
e000
e000
e000
e000
e000
e000
e7c0
efe0
fff0
f838
e038
e018
e018
e018
c018
c018
c018
c018
e018
ENDCHAR
STARTCHAR C105
ENCODING 105
SWIDTH 480 0
DWIDTH 20 0
BBX 11 17 2 -2
BITMAP
0e00
0e00
0000
0000
1c00
3e00
1e00
0e00
0e00
0e00
0e00
0e00
0e00
0e00
0e00
ffe0
ffe0
ENDCHAR
STARTCHAR C106
ENCODING 106
SWIDTH 480 0
DWIDTH 20 0
BBX 11 22 2 -7
BITMAP
00e0
00e0
0000
0000
01e0
03e0
01e0
00e0
00e0
00e0
00e0
00e0
00e0
00e0
00e0
e0e0
e0e0
e0e0
e0e0
7fc0
3f80
0e00
ENDCHAR
STARTCHAR C107
ENCODING 107
SWIDTH 480 0
DWIDTH 20 0
BBX 13 19 2 -2
BITMAP
e000
e000
e000
e000
e000
e000
e000
e0e0
e1c0
e380
ff00
fe00
fe00
e780
e1c0
e0e0
e070
e030
e018
ENDCHAR
STARTCHAR C108
ENCODING 108
SWIDTH 480 0
DWIDTH 20 0
BBX 11 19 2 -2
BITMAP
3e00
3e00
0e00
0e00
0e00
0e00
0e00
0e00
0e00
0e00
0e00
0e00
0e00
0e00
0e00
0e00
0e00
ffe0
ffe0
ENDCHAR
STARTCHAR C109
ENCODING 109
SWIDTH 480 0
DWIDTH 20 0
BBX 15 13 0 -2
BITMAP
fc78
fefc
c7fc
c38e
c38e
c386
c386
c386
c386
c386
c106
c006
c006
ENDCHAR
STARTCHAR C110
ENCODING 110
SWIDTH 480 0
DWIDTH 20 0
BBX 13 13 2 -2
BITMAP
efe0
fff0
fc78
f038
e038
e018
e018
e018
c018
c018
c018
c018
c018
ENDCHAR
STARTCHAR C111
ENCODING 111
SWIDTH 480 0
DWIDTH 20 0
BBX 13 13 2 -2
BITMAP
1fe0
7ff0
f030
e038
e038
c018
c018
c018
e038
e038
7ff0
3fe0
1fc0
ENDCHAR
STARTCHAR C112
ENCODING 112
SWIDTH 480 0
DWIDTH 20 0
BBX 13 17 2 -6
BITMAP
efe0
fff0
fc30
f038
e018
e018
e038
f838
fff0
efe0
e380
e000
e000
e000
e000
e000
e000
ENDCHAR
STARTCHAR C113
ENCODING 113
SWIDTH 480 0
DWIDTH 20 0
BBX 13 17 2 -6
BITMAP
3f98
7fd8
60f8
e038
e018
e018
e038
e0f8
7ff8
3f98
0e18
0018
0018
0018
0018
0018
0018
ENDCHAR
STARTCHAR C114
ENCODING 114
SWIDTH 480 0
DWIDTH 20 0
BBX 13 13 2 -2
BITMAP
c7e0
eff0
7c70
7818
3800
3800
3800
3800
3800
3800
3800
3800
3000
ENDCHAR
STARTCHAR C115
ENCODING 115
SWIDTH 480 0
DWIDTH 20 0
BBX 13 13 2 -2
BITMAP
3fc0
7ff0
6070
6018
7800
3f00
0fc0
03e0
8070
e010
7ff0
3fe0
0f80
ENDCHAR
STARTCHAR C116
ENCODING 116
SWIDTH 480 0
DWIDTH 20 0
BBX 13 17 2 -2
BITMAP
3800
3800
3800
3800
ffe0
ffe0
ffe0
3800
3800
3800
3800
3800
3800
3818
1c70
1ff0
07e0
ENDCHAR
STARTCHAR C117
ENCODING 117
SWIDTH 480 0
DWIDTH 20 0
BBX 13 13 2 -2
BITMAP
c0e0
c0e0
c0e0
c0e0
c0e0
c0e0
c0e0
e0e0
e0e0
e0f0
7ff0
3f18
1e08
ENDCHAR
STARTCHAR C118
ENCODING 118
SWIDTH 480 0
DWIDTH 20 0
BBX 11 12 2 -1
BITMAP
e0e0
e0e0
c0e0
e0e0
e0e0
e0c0
71c0
71c0
3180
3b00
1f00
0e00
ENDCHAR
STARTCHAR C119
ENCODING 119
SWIDTH 480 0
DWIDTH 20 0
BBX 15 13 0 -2
BITMAP
c006
c006
c006
c006
c386
c386
c386
c7ce
e7ce
ec6e
7c7c
3838
1010
ENDCHAR
STARTCHAR C120
ENCODING 120
SWIDTH 480 0
DWIDTH 20 0
BBX 12 13 2 -2
BITMAP
8010
c030
6060
39c0
1f80
1f80
0f00
1f80
1f80
30c0
6060
c030
0000
ENDCHAR
STARTCHAR C121
ENCODING 121
SWIDTH 480 0
DWIDTH 20 0
BBX 13 17 2 -6
BITMAP
c018
c018
c018
c018
e018
e018
e078
e1f8
7ff8
3f98
0e18
0038
0038
c038
79f0
3ff0
1fc0
ENDCHAR
STARTCHAR C122
ENCODING 122
SWIDTH 480 0
DWIDTH 20 0
BBX 13 13 2 -2
BITMAP
fff8
fff0
0060
00c0
0180
0300
0600
0c00
1800
3000
7ff8
7ff8
7ff8
ENDCHAR
STARTCHAR C123
ENCODING 123
SWIDTH 480 0
DWIDTH 20 0
BBX 11 19 2 -2
BITMAP
07c0
1fe0
1c00
3800
3800
1800
0c00
0c00
7c00
f800
7800
0c00
0c00
1800
3800
3800
1e00
1fe0
07c0
ENDCHAR
STARTCHAR C124
ENCODING 124
SWIDTH 480 0
DWIDTH 20 0
BBX 2 24 6 -5
BITMAP
c0
c0
c0
c0
c0
c0
c0
c0
c0
c0
c0
00
c0
c0
c0
c0
c0
c0
c0
c0
c0
c0
c0
c0
ENDCHAR
STARTCHAR C125
ENCODING 125
SWIDTH 480 0
DWIDTH 20 0
BBX 11 19 2 -2
BITMAP
7c00
fe00
0f00
0380
0380
0300
0600
0e00
0780
03e0
07c0
0e00
0600
0700
0380
0380
0f00
fe00
7c00
ENDCHAR
STARTCHAR C126
ENCODING 126
SWIDTH 480 0
DWIDTH 20 0
BBX 11 5 2 5
BITMAP
3820
7c60
6ee0
c7c0
8380
ENDCHAR
STARTCHAR C128
ENCODING 128
SWIDTH 480 0
DWIDTH 20 0
BBX 15 15 0 0
BITMAP
0006
0006
0006
0006
0006
0006
fffe
fffe
fffe
0006
0006
0006
0006
0006
0006
ENDCHAR
STARTCHAR C129
ENCODING 129
SWIDTH 480 0
DWIDTH 20 0
BBX 15 15 0 0
BITMAP
c000
c000
c000
c000
c000
c000
fffe
fffe
fffe
c000
c000
c000
c000
c000
c000
ENDCHAR
STARTCHAR C130
ENCODING 130
SWIDTH 480 0
DWIDTH 20 0
BBX 15 13 0 2
BITMAP
1ffe
7ffe
7c00
e000
e000
c000
c000
c000
c000
e000
7ffe
3ffe
1ffe
ENDCHAR
STARTCHAR C131
ENCODING 131
SWIDTH 480 0
DWIDTH 20 0
BBX 15 13 0 2
BITMAP
fff0
fff8
003c
000e
000e
0006
0006
0006
000e
000e
80fc
fff8
fff0
ENDCHAR
STARTCHAR C132
ENCODING 132
SWIDTH 480 0
DWIDTH 20 0
BBX 15 19 0 -2
BITMAP
fffe
fffe
0380
0380
0380
0380
0380
0380
0380
0380
0380
0380
0380
0380
0380
0380
0380
fffe
fffe
ENDCHAR
STARTCHAR C133
ENCODING 133
SWIDTH 480 0
DWIDTH 20 0
BBX 15 15 0 2
BITMAP
0300
0180
00e0
0070
0078
0038
fffc
fffe
fffc
0038
0070
0060
00c0
0180
0300
ENDCHAR
STARTCHAR C134
ENCODING 134
SWIDTH 480 0
DWIDTH 20 0
BBX 17 21 0 -2
BITMAP
000180
000300
000700
000e00
001c00
003800
fffe00
fffe00
fffe00
01c000
018000
030000
fffe00
fffe00
fffe00
1e0000
380000
300000
700000
e00000
c00000
ENDCHAR
STARTCHAR C137
ENCODING 137
SWIDTH 480 0
DWIDTH 20 0
BBX 15 15 0 2
BITMAP
1ff0
7ffc
f93c
e30e
e30e
c7ce
fffe
efe6
c7ce
cfee
fc6e
f01e
7ffc
3ff8
1ff0
ENDCHAR
STARTCHAR C139
ENCODING 139
SWIDTH 480 0
DWIDTH 20 0
BBX 15 19 0 -2
BITMAP
0380
0380
0380
0380
0380
0380
0380
0380
0380
0380
8382
c386
638c
739c
3ff8
1ff0
0fe0
07c0
0100
ENDCHAR
STARTCHAR C140
ENCODING 140
SWIDTH 480 0
DWIDTH 20 0
BBX 15 19 0 -2
BITMAP
0380
07c0
0fe0
1ff0
3bb8
739c
e38e
c386
0380
0380
0380
0380
0380
0380
0380
0380
0380
0380
0100
ENDCHAR
STARTCHAR C141
ENCODING 141
SWIDTH 480 0
DWIDTH 20 0
BBX 11 24 2 -5
BITMAP
ffe0
ffe0
e000
e000
e000
e000
e000
e000
e000
e000
e000
e000
e000
e000
e000
e000
e000
e000
e000
e000
e000
e000
e000
c000
ENDCHAR
STARTCHAR C143
ENCODING 143
SWIDTH 480 0
DWIDTH 20 0
BBX 11 24 2 -5
BITMAP
e000
e000
e000
e000
e000
e000
e000
e000
e000
e000
e000
e000
e000
e000
e000
e000
e000
e000
e000
e000
e000
ffe0
ffe0
ffe0
ENDCHAR
STARTCHAR C144
ENCODING 144
SWIDTH 480 0
DWIDTH 20 0
BBX 15 15 0 2
BITMAP
0300
0600
0e00
1c00
3800
7000
fffe
fffe
fffe
7000
3800
1c00
0e00
0700
0100
ENDCHAR
STARTCHAR C145
ENCODING 145
SWIDTH 480 0
DWIDTH 20 0
BBX 15 17 0 0
BITMAP
0100
0380
06c0
06c0
0c60
0c60
1830
3830
3018
701c
600c
e00e
e00e
c00e
c006
fffe
fffe
ENDCHAR
STARTCHAR C146
ENCODING 146
SWIDTH 480 0
DWIDTH 20 0
BBX 11 11 2 4
BITMAP
c020
60e0
3180
3f80
1f00
1f00
1f00
3f80
71c0
c0e0
0020
ENDCHAR
STARTCHAR C147
ENCODING 147
SWIDTH 480 0
DWIDTH 20 0
BBX 15 26 0 -4
BITMAP
0380
0380
0380
0380
0380
0380
07c0
07c0
0fe0
0fe0
1bb0
1bb0
3398
3398
638c
638c
e38e
e38e
c38e
fffe
fffe
fffe
0380
0380
0380
0380
ENDCHAR
STARTCHAR C149
ENCODING 149
SWIDTH 480 0
DWIDTH 20 0
BBX 15 26 0 -4
BITMAP
fffe
fffe
fffe
c006
c006
c006
c006
c006
c006
c006
c006
c006
c006
c006
c006
c006
c006
c006
c006
c006
c006
c006
c006
fffe
fffe
fffe
ENDCHAR
STARTCHAR C151
ENCODING 151
SWIDTH 480 0
DWIDTH 20 0
BBX 15 26 0 -4
BITMAP
fffe
fffe
fffe
c386
c386
c386
c386
c386
c106
c006
c006
c006
c006
c006
c006
c006
c006
c006
c006
c006
c006
c006
c006
fffe
fffe
fffe
ENDCHAR
STARTCHAR C152
ENCODING 152
SWIDTH 480 0
DWIDTH 20 0
BBX 15 26 0 -4
BITMAP
fffe
fffe
fffe
c006
c106
c386
c386
c386
c106
c006
c006
fffe
fffe
c006
c006
c386
c386
c386
c386
c106
c006
c006
c006
fffe
fffe
fffe
ENDCHAR
STARTCHAR C154
ENCODING 154
SWIDTH 480 0
DWIDTH 20 0
BBX 13 4 2 15
BITMAP
f8f8
f8f8
f8f8
f8f8
ENDCHAR
STARTCHAR C157
ENCODING 157
SWIDTH 480 0
DWIDTH 20 0
BBX 15 26 0 -4
BITMAP
0380
0380
0380
0380
fffe
fffe
fffe
c38e
c38e
c38e
638c
638c
3398
3398
1bb0
1bb0
0fe0
0fe0
07c0
07c0
0380
0380
0380
0380
0380
0380
ENDCHAR
STARTCHAR C158
ENCODING 158
SWIDTH 480 0
DWIDTH 20 0
BBX 13 15 2 -2
BITMAP
fff8
fff8
fff8
0000
0000
0000
0700
0f80
0f00
0c00
1c00
3800
7000
6000
c000
ENDCHAR
STARTCHAR C161
ENCODING 161
SWIDTH 480 0
DWIDTH 20 0
BBX 15 26 0 -4
BITMAP
fffe
fffe
fffe
c006
c006
c006
fffe
fffe
fffe
e00e
f01e
f01e
f836
c826
cc66
c446
c6c6
c386
c386
c106
c006
c006
c006
fffe
fffe
fffe
ENDCHAR
STARTCHAR C162
ENCODING 162
SWIDTH 480 0
DWIDTH 20 0
BBX 15 26 0 -4
BITMAP
fffe
fffe
fffe
c006
c006
c006
c006
c106
c206
ce06
de06
fffe
fffe
ee06
c606
c306
c106
c006
c006
c006
c006
c006
c006
fffe
fffe
fffe
ENDCHAR
STARTCHAR C163
ENCODING 163
SWIDTH 480 0
DWIDTH 20 0
BBX 15 26 0 -4
BITMAP
fffe
fffe
fffe
c006
c006
c006
c006
c106
c1c6
c0e6
c0f6
fffe
fffe
c0f6
c0e6
c186
c106
c006
c006
c006
c006
c006
c006
fffe
fffe
fffe
ENDCHAR
STARTCHAR C166
ENCODING 166
SWIDTH 480 0
DWIDTH 20 0
BBX 15 19 0 -2
BITMAP
1ff0
7ffc
703c
e00e
c38e
cfe6
dff6
f01e
f01e
f01e
f01e
f01e
fff6
cfe6
c7c6
c006
c006
c006
c006
ENDCHAR
STARTCHAR C167
ENCODING 167
SWIDTH 480 0
DWIDTH 20 0
BBX 15 19 0 -2
BITMAP
8000
c000
6000
6000
3000
1800
0c00
0e00
3ffe
3ffe
3ffe
0180
00c0
0060
0030
0018
000c
000e
0006
ENDCHAR
STARTCHAR C168
ENCODING 168
SWIDTH 480 0
DWIDTH 20 0
BBX 15 15 0 2
BITMAP
0300
0380
06c0
0c60
1830
3018
e00c
c006
600c
3018
1830
0c60
07c0
0380
0100
ENDCHAR
STARTCHAR C174
ENCODING 174
SWIDTH 480 0
DWIDTH 20 0
BBX 15 15 0 2
BITMAP
0100
0700
0e00
1c00
3ffe
7ffe
fe7e
c000
fffe
7ffe
3ffe
1c00
0600
0300
0100
ENDCHAR
STARTCHAR C175
ENCODING 175
SWIDTH 480 0
DWIDTH 20 0
BBX 15 15 0 2
BITMAP
0300
0180
00c0
00e0
fff0
fff8
f9fc
0006
fffc
fff8
fff0
00e0
01c0
0180
0200
ENDCHAR
STARTCHAR C224
ENCODING 224
SWIDTH 480 0
DWIDTH 20 0
BBX 15 13 0 2
BITMAP
1e02
7f84
7fcc
c0f8
c078
c070
c070
c070
c070
c0f0
7ff8
7f9c
1f0e
ENDCHAR
STARTCHAR C226
ENCODING 226
SWIDTH 480 0
DWIDTH 20 0
BBX 7 15 4 0
BITMAP
e0
f0
38
38
38
38
30
70
60
60
60
70
78
3e
1e
ENDCHAR
STARTCHAR C227
ENCODING 227
SWIDTH 480 0
DWIDTH 20 0
BBX 11 19 2 2
BITMAP
71c0
f1e0
f1e0
60c0
0000
0000
0000
0000
1f00
3f80
7fc0
e0e0
e0e0
e0e0
e0e0
e0e0
7fc0
3f80
1f00
ENDCHAR
STARTCHAR C228
ENCODING 228
SWIDTH 480 0
DWIDTH 20 0
BBX 15 21 0 0
BITMAP
1c70
3c78
3c78
1830
0000
0000
1ff0
7ff8
783c
e00e
e00e
c006
c006
c006
c006
c006
c00e
e00e
701c
7ffc
1ff0
ENDCHAR
STARTCHAR C229
ENCODING 229
SWIDTH 480 0
DWIDTH 20 0
BBX 15 14 0 3
BITMAP
c002
c006
e00e
f00e
7c1c
761a
f31e
f9be
98fc
1cf8
0ce0
0ee0
07c0
0380
ENDCHAR
STARTCHAR C230
ENCODING 230
SWIDTH 480 0
DWIDTH 20 0
BBX 15 17 0 0
BITMAP
0380
0380
0380
0380
0380
0380
0380
0380
0380
0380
0380
0380
0380
0380
0380
fffe
fffe
ENDCHAR
STARTCHAR C231
ENCODING 231
SWIDTH 480 0
DWIDTH 20 0
BBX 15 17 0 0
BITMAP
fffe
fffe
0380
0380
0380
0380
0380
0380
0380
0380
0380
0380
0380
0380
0380
0380
0380
ENDCHAR
STARTCHAR C232
ENCODING 232
SWIDTH 480 0
DWIDTH 20 0
BBX 15 26 0 -4
BITMAP
0380
0380
0380
0380
0ff0
3ff8
7ffc
e38e
e38e
c38e
c386
c386
c386
c386
c38e
e38e
e38e
7ffc
3ff8
0fc0
0380
0380
0380
0380
0380
0380
ENDCHAR
STARTCHAR C233
ENCODING 233
SWIDTH 480 0
DWIDTH 20 0
BBX 15 15 0 2
BITMAP
1ff0
7ffc
f01c
e00e
c006
c006
fffe
fffe
fffe
c006
c00e
e00e
787c
3ff8
1ff0
ENDCHAR
STARTCHAR C234
ENCODING 234
SWIDTH 480 0
DWIDTH 20 0
BBX 15 15 0 2
BITMAP
0300
0780
0ec0
1e60
7e60
fe32
d936
b8dc
3078
703c
601c
e00e
c006
c006
0000
ENDCHAR
STARTCHAR C235
ENCODING 235
SWIDTH 480 0
DWIDTH 20 0
BBX 15 19 0 -2
BITMAP
0006
000c
000c
0018
0038
0070
00e0
01c0
3ffe
3ffe
3ffe
0700
0c00
1800
3000
7000
6000
c000
8000
ENDCHAR
STARTCHAR C236
ENCODING 236
SWIDTH 480 0
DWIDTH 20 0
BBX 15 17 0 0
BITMAP
fffe
fffe
c00e
c00e
c00e
e00c
600c
2018
3018
1030
1830
0860
0c60
0440
06c0
0380
0100
ENDCHAR
STARTCHAR C237
ENCODING 237
SWIDTH 480 0
DWIDTH 20 0
BBX 17 19 0 0
BITMAP
c00000
700000
7ff000
3ffc00
781c00
e80e00
c40e00
c20600
c10600
c18600
c0c600
c06600
c03600
e01e00
7c1e00
3fff00
1fff00
000380
000080
ENDCHAR
STARTCHAR C238
ENCODING 238
SWIDTH 480 0
DWIDTH 20 0
BBX 13 15 0 0
BITMAP
1fe0
3ff8
7000
e000
e000
e000
7000
3f80
7800
e000
e000
e000
7000
3ff8
1fe0
ENDCHAR
STARTCHAR C239
ENCODING 239
SWIDTH 480 0
DWIDTH 20 0
BBX 13 17 0 0
BITMAP
1fc0
7fe0
7070
e038
c038
c038
c038
c038
c038
c038
c038
c038
c038
c038
c038
c038
c038
ENDCHAR
STARTCHAR C240
ENCODING 240
SWIDTH 480 0
DWIDTH 20 0
BBX 15 17 0 -2
BITMAP
fffe
fffe
0000
0000
0000
0000
0000
fffe
fffe
0000
0000
0000
0000
0000
0000
fffe
fffe
ENDCHAR
STARTCHAR C242
ENCODING 242
SWIDTH 480 0
DWIDTH 20 0
BBX 11 24 2 -5
BITMAP
c000
6000
7000
3800
1c00
0e00
0300
0180
00c0
00e0
00c0
0380
0700
0e00
1c00
3800
7000
6000
c000
0000
0000
ffe0
ffe0
ffe0
ENDCHAR
STARTCHAR C243
ENCODING 243
SWIDTH 480 0
DWIDTH 20 0
BBX 11 24 2 -5
BITMAP
0060
00c0
0180
0380
0700
0c00
1800
3000
6000
e000
6000
3000
1c00
0e00
0700
0380
01c0
00c0
0060
0000
0000
ffe0
ffe0
ffe0
ENDCHAR
STARTCHAR C244
ENCODING 244
SWIDTH 480 0
DWIDTH 20 0
BBX 15 17 0 0
BITMAP
fffe
fffe
0380
0380
07c0
0fe0
1ff0
3bb8
33b8
3bb8
1ff0
0fe0
07c0
0380
0380
0380
0380
ENDCHAR
STARTCHAR C245
ENCODING 245
SWIDTH 480 0
DWIDTH 20 0
BBX 15 17 0 0
BITMAP
0380
0380
0380
0380
07c0
0fe0
1ff0
3bb8
33b8
3bb8
1ff0
0fe0
07c0
0380
0380
fffe
fffe
ENDCHAR
STARTCHAR C246
ENCODING 246
SWIDTH 480 0
DWIDTH 20 0
BBX 13 15 2 2
BITMAP
0f80
0f80
0000
0000
0000
0000
fff8
fff8
fff8
0000
0000
0000
0700
0f80
0f80
ENDCHAR
STARTCHAR C247
ENCODING 247
SWIDTH 480 0
DWIDTH 20 0
BBX 15 13 0 2
BITMAP
4000
c004
c006
c006
c106
c106
c386
c38e
e38e
e7ce
7ffc
3ef8
1c70
ENDCHAR
STARTCHAR C248
ENCODING 248
SWIDTH 480 0
DWIDTH 20 0
BBX 11 11 2 2
BITMAP
3f80
7fc0
60c0
c060
c060
c060
c0e0
e0c0
7fc0
3f80
0e00
ENDCHAR
STARTCHAR C249
ENCODING 249
SWIDTH 480 0
DWIDTH 20 0
BBX 15 15 0 2
BITMAP
1ff0
7ffc
f00c
e00e
c00e
c006
c006
c006
c006
c006
c00e
e00e
78fc
3ff8
1ff0
ENDCHAR
STARTCHAR C250
ENCODING 250
SWIDTH 480 0
DWIDTH 20 0
BBX 15 15 0 0
BITMAP
8002
c006
c006
600c
601c
3018
3018
1830
1830
0c60
0c60
06c0
06c0
0380
0100
ENDCHAR
STARTCHAR C251
ENCODING 251
SWIDTH 480 0
DWIDTH 20 0
BBX 11 20 4 -5
BITMAP
1f00
3f80
60c0
e060
e060
e060
e060
e0e0
ffc0
ff80
ff00
e000
e000
e000
e000
e000
e000
e000
e000
4000
ENDCHAR
STARTCHAR C252
ENCODING 252
SWIDTH 480 0
DWIDTH 20 0
BBX 13 17 0 0
BITMAP
c038
c038
c038
c038
c038
c038
c038
c038
c038
c038
c038
c038
e038
e038
78f0
7fe0
1fc0
ENDCHAR
STARTCHAR C253
ENCODING 253
SWIDTH 480 0
DWIDTH 20 0
BBX 15 2 0 17
BITMAP
fffe
fffe
ENDCHAR
STARTCHAR C254
ENCODING 254
SWIDTH 480 0
DWIDTH 20 0
BBX 2 24 6 -5
BITMAP
c0
c0
c0
c0
c0
c0
c0
c0
c0
c0
c0
c0
c0
c0
c0
c0
c0
c0
c0
c0
c0
c0
c0
c0
ENDCHAR
ENDFONT
